<svg width="756" height="118" viewBox="0 0 756 118" fill="none" xmlns="http://www.w3.org/2000/svg">
<g clip-path="url(#clip0_748_7452)">
<path d="M216.992 62.4707H16.0574V81.9928H216.992V62.4707Z" fill="#C1272D"/>
<path d="M216.992 31.2354H31.6808V49.4559H216.992V31.2354Z" fill="#C1272D"/>
<path d="M216.992 1.73535H49.4742V18.2206H216.992V1.73535Z" fill="#C1272D"/>
<path d="M739.075 34.7061H629.711V54.2281H739.075V34.7061Z" fill="#C1272D"/>
<path d="M723.885 68.1104H629.711V86.3309H723.885V68.1104Z" fill="#C1272D"/>
<path d="M705.658 100.213H629.711V116.699H705.658V100.213Z" fill="#C1272D"/>
<path d="M279.92 1.73535L267.334 74.1839L239.993 1.73535H213.52L197.463 95.4412H0V116.265H193.557H216.992H220.464L233.049 43.8162L260.824 116.265H286.863L306.827 1.73535H279.92Z" fill="#333333"/>
<path d="M304.657 116.265H381.472L384.944 95.0074H335.036L339.809 67.6765H381.906L385.812 47.2868H343.281L347.621 22.9927H397.529L401.435 1.73535H324.186L304.657 116.265Z" fill="#333333"/>
<path d="M510.365 1.73535L486.496 73.3162L482.156 1.73535H459.155L433.116 72.8824L431.38 1.73535H405.341L410.983 116.265H438.758L463.495 51.1912L468.269 116.265H496.044L537.706 1.73535H510.365Z" fill="#333333"/>
<path d="M756 21.2574V0H589.784C581.972 0 574.595 1.30147 567.651 3.90441C560.707 6.50735 555.065 10.4118 550.726 15.6176C546.82 20.8235 544.65 26.4632 544.216 32.9706C543.348 46.8529 552.028 58.1324 570.255 66.375L583.274 71.5809C590.652 75.0515 594.124 79.3897 592.822 85.4632C591.954 88.9338 590.218 91.9706 587.18 94.1397C584.142 96.3088 580.237 97.1765 575.897 97.1765C569.821 97.1765 565.481 95.875 562.877 92.8382C560.273 89.8015 558.971 85.4632 559.405 79.3897H532.498C532.064 91.1029 535.97 100.213 543.348 107.588C547.254 111.059 551.594 113.662 556.801 115.831C562.009 117.566 567.651 118.434 574.161 118.868C582.84 118.868 590.218 117.566 597.162 114.963C604.106 112.36 609.313 108.456 613.219 103.25C617.125 98.0441 619.295 92.4044 619.729 85.8971C620.597 73.3162 614.521 62.9044 601.936 55.5294C598.03 52.9265 591.52 50.3235 582.84 46.8529C574.161 43.3824 570.255 39.0441 571.123 33.8382C571.557 29.9338 573.727 27.3309 577.199 24.7279C580.237 22.9926 583.708 21.6912 587.18 21.6912H756V21.2574Z" fill="#333333"/>
</g>
<defs>
<clipPath id="clip0_748_7452">
<rect width="756" height="118" fill="white"/>
</clipPath>
</defs>
</svg>
